# xmcd
#
# Track frame offsets: 
#        150
#        12496
#        26245
#        36355
#        48754
#        62888
#        73735
#        86470
#        99098
#        111010
#        120751
#        135983
#        147397
#        156849
#        169772
#        182798
#        194629
#        208011
#        219535
#        231143
#        244532
#        256900
#        267981
#        282211
#        296154
#        309071
#        324108
#        335302
#
# Disc length: 4667 seconds
#
# Revision: 0
# Processed by: cddbd v1.5.2PL0 Copyright (c) Steve Scherf et al.
# Submitted via: ExactAudioCopy v1.3
#
DISCID=8f12391c
DTITLE=Elton Britt - Country Musuc's Yodelling Cowboy Crooner_Vol. 2
DYEAR=2007
DGENRE=Country
TTITLE0=I Almost Lost My Mind
TTITLE1=I Never Knew What It Meant To Be Lonesome
TTITLE2=One Way Ticket
TTITLE3=Driftwood On The River
TTITLE4=Alpine Milkman Yodel
TTITLE5=One Drink Makes Me Happy
TTITLE6=Someday You'll Want Me Want You
TTITLE7=Sweet Leilani
TTITLE8=When The Roses Bloom Again
TTITLE9=Five Glasses On A Texas Bar
TTITLE10=Lorelei
TTITLE11=Absent Minded Heart
TTITLE12=Blacksmith Blues
TTITLE13=Swiss Yodel (As The Britt Bros)
TTITLE14=A Red Red Rose
TTITLE15=Nuevo Laredo
TTITLE16=I Feel The Blues Coming On
TTITLE17=Rainbow In My Heart
TTITLE18=Trailing Arbutus
TTITLE19=The Precious Jewel
TTITLE20=Born To Lose
TTITLE21=To You Sweetheart Aloha
TTITLE22=New Worried Mind
TTITLE23=Will The Angels Let Me Play?
TTITLE24=Blue Guitar
TTITLE25=Don't Weep, Don't Mourn, Don't Worry
TTITLE26=The Singing Hills
TTITLE27=Maybe I Was Wrong
EXTD=
EXTT0=
EXTT1=
EXTT2=
EXTT3=
EXTT4=
EXTT5=
EXTT6=
EXTT7=
EXTT8=
EXTT9=
EXTT10=
EXTT11=
EXTT12=
EXTT13=
EXTT14=
EXTT15=
EXTT16=
EXTT17=
EXTT18=
EXTT19=
EXTT20=
EXTT21=
EXTT22=
EXTT23=
EXTT24=
EXTT25=
EXTT26=
EXTT27=
PLAYORDER=
